<?xml version="1.0" standalone="no"?>
<!DOCTYPE svg PUBLIC "-//W3C//DTD SVG 20010904//EN"
 "http://www.w3.org/TR/2001/REC-SVG-20010904/DTD/svg10.dtd">
<svg version="1.0" xmlns="http://www.w3.org/2000/svg"
 width="800.000000pt" height="600.000000pt" viewBox="0 0 800.000000 600.000000"
 preserveAspectRatio="xMidYMid meet">
<metadata>
Created by potrace 1.15, written by Peter Selinger 2001-2017
</metadata>
<g transform="translate(0.000000,600.000000) scale(0.100000,-0.100000)"
fill="#000000" stroke="none">
<path d="M350 3390 l0 -1560 3590 0 3590 0 0 1560 0 1560 -3590 0 -3590 0 0
-1560z m7140 0 l0 -1520 -3550 0 -3550 0 0 1520 0 1520 3550 0 3550 0 0 -1520z"/>
<path d="M3405 3869 c-53 -40 -57 -50 -41 -98 8 -22 20 -83 25 -135 14 -122
14 -449 0 -501 -22 -83 -22 -89 6 -119 19 -20 30 -26 43 -20 26 13 335 17 377
5 32 -9 37 -7 51 14 9 13 18 43 21 66 6 42 6 42 -23 36 -104 -21 -143 -25
-254 -28 l-125 -3 2 34 c1 19 6 191 10 382 5 191 12 350 16 354 11 11 -24 44
-47 44 -12 0 -39 -14 -61 -31z"/>
<path d="M5140 3879 c-19 -5 -59 -17 -87 -25 -44 -12 -53 -18 -53 -37 0 -12 8
-30 18 -38 15 -13 20 -37 26 -115 10 -144 -3 -518 -20 -581 -8 -28 -14 -55
-14 -61 0 -18 97 -46 123 -36 12 4 14 37 9 210 -4 152 -2 204 7 204 39 0 228
-116 456 -280 181 -130 244 -170 271 -170 27 0 108 73 102 91 -2 7 -28 18 -58
26 -30 7 -99 42 -155 76 -174 106 -503 322 -500 327 2 3 27 14 56 25 75 28
133 88 148 153 16 66 7 105 -35 152 -62 68 -202 106 -294 79z m180 -98 c22
-17 25 -25 24 -83 -1 -87 -24 -119 -118 -164 -43 -21 -74 -30 -79 -25 -10 10
7 233 19 264 7 19 70 37 104 31 14 -3 36 -13 50 -23z"/>
<path d="M1120 3838 c-30 -18 -56 -41 -58 -51 -3 -13 55 -78 185 -210 193
-197 432 -472 460 -532 9 -18 27 -38 41 -45 23 -10 29 -7 79 46 63 67 203 257
319 434 97 149 137 223 132 246 -4 23 -93 67 -117 59 -13 -4 -22 -19 -26 -48
-25 -151 -190 -444 -317 -565 l-34 -32 -41 47 c-22 27 -116 131 -208 233 -197
218 -284 327 -316 394 -13 27 -29 51 -34 53 -6 2 -35 -11 -65 -29z"/>
<path d="M6410 3839 c-200 -24 -343 -155 -390 -358 -19 -83 -9 -214 23 -281
70 -147 198 -208 377 -181 71 11 76 11 91 -8 9 -11 20 -41 23 -66 9 -55 28
-77 59 -66 22 8 22 10 19 187 -4 233 -4 234 -48 234 -28 0 -36 -5 -44 -26 -6
-14 -10 -36 -10 -50 0 -77 -74 -128 -185 -128 -137 0 -195 60 -203 209 -7 137
45 269 145 370 97 97 196 122 263 65 38 -34 65 -37 98 -14 27 19 29 64 4 87
-29 26 -126 38 -222 26z"/>
<path d="M2671 3795 c-101 -28 -198 -121 -234 -223 -59 -166 -30 -357 69 -456
116 -115 304 -116 431 -1 94 83 129 188 121 352 -9 158 -64 265 -162 312 -58
28 -156 35 -225 16z m184 -113 c26 -18 50 -49 70 -87 28 -57 30 -66 30 -180 0
-107 -3 -125 -24 -165 -31 -60 -48 -78 -96 -102 -48 -25 -128 -27 -170 -5
-135 70 -187 276 -112 440 57 125 199 171 302 99z"/>
<path d="M4331 3795 c-101 -28 -198 -121 -234 -223 -59 -166 -30 -357 69 -456
116 -115 304 -116 431 -1 94 83 129 188 121 352 -9 158 -64 265 -162 312 -58
28 -156 35 -225 16z m184 -113 c26 -18 50 -49 70 -87 28 -57 30 -66 30 -180 0
-107 -3 -125 -24 -165 -31 -60 -48 -78 -96 -102 -48 -25 -128 -27 -170 -5
-135 70 -187 276 -112 440 57 125 199 171 302 99z"/>
</g>
</svg>
